<?xml version="1.0" encoding="UTF-8" standalone="no"?>
<svg
  xmlns="http://www.w3.org/2000/svg"
  xmlns:xlink="http://www.w3.org/1999/xlink"
  version="1.1"
  viewBox="0 0 1700 150"
  >
  <title>Mikrotik Device</title>
  <style>
    .device-port {
      fill: #4d4d4d;
    }
    .device-port.connected {
      fill: #00ff00;
    }
    .device-port.disconnected {
      fill: #ff0000;
    }
    .device-power {
      fill: #4d4d4d;
    }
    .device-power.on {
      fill: #00ff00;
    }
    .device-power.off {
      fill: #ff0000;
    }
  </style>
  <g transform="translate(0 0)">
    <rect
        style="stroke:#000000;stroke-width:1;fill:#ffffff"
        height="150"
        width="1700"
        y="0"
        x="0"
    />
  </g>
  <g transform="translate(50 10),scale(0.5 0.5)">
    <path
      d="M160.74,13.41v2.5c0,.47-.38.84-.85.82-.71-.03-1.7-.06-2.3-.07-3.39,0-5.26,2.02-5.26,5.69v9.1c0,.45-.37.82-.82.82h-2.97c-.45,0-.82-.37-.82-.82V13.17c0-.45.37-.82.82-.82h2.83c.45,0,.82.37.82.82v1.16c1.35-1.4,3.52-2.16,6.19-2.16.44,0,1,.06,1.39.12.55.07.97.55.97,1.11ZM130.32,21.1c-.16-.21-.14-.5.04-.68l7.31-7.19c.33-.32.1-.88-.36-.88h-4.26c-.21,0-.4.08-.55.22l-8.24,7.56c-.33.3-.86.07-.86-.38v-6.58c0-.45-.37-.82-.82-.82h-2.97c-.45,0-.82.37-.82.82v18.27c0,.45.37.82.82.82h2.97c.46,0,.82-.37.82-.83l-.03-4.24c0-.23.09-.45.26-.61l2.56-2.38c.22-.2.56-.18.75.05l6.19,7.69c.16.19.39.31.64.31h4.27c.43,0,.67-.49.4-.83l-8.14-10.33ZM106.06,12.35h-2.97c-.45,0-.82.37-.82.82v18.27c0,.45.37.82.82.82h2.97c.45,0,.82-.37.82-.82V13.17c0-.45-.37-.82-.82-.82ZM212.57,12.35h-17.95c-.45,0-.82.37-.82.82v2.66c0,.45.37.82.82.82h6.1c.28,0,.51.23.51.51v14.28c0,.45.37.82.82.82h3.08c.45,0,.82-.37.82-.82v-14.28c0-.28.23-.51.51-.51h6.1c.45,0,.82-.37.82-.82v-2.66c0-.45-.37-.82-.82-.82ZM187.59,22.31c0,5.89-4.33,10.17-10.31,10.17s-10.34-4.28-10.34-10.17,4.35-10.13,10.34-10.13,10.31,4.26,10.31,10.13ZM182.94,22.31c0-3.55-2.27-5.94-5.66-5.94s-5.69,2.44-5.69,5.94,2.34,5.97,5.69,5.97,5.66-2.46,5.66-5.97ZM226.43,12.35h-2.97c-.45,0-.82.37-.82.82v18.27c0,.45.37.82.82.82h2.97c.45,0,.82-.37.82-.82V13.17c0-.45-.37-.82-.82-.82ZM82.08,12.18c-2.68,0-5.09.92-6.74,2.56-.22.22-.56.2-.76-.03-1.41-1.63-3.57-2.53-6.17-2.53-2.39,0-4.43.71-5.83,2.02v-1.02c0-.45-.37-.82-.82-.82h-2.83c-.45,0-.82.37-.82.82v18.27c0,.45.37.82.82.82h2.97c.45,0,.82-.37.82-.82v-9.41c0-3.55,1.82-5.59,4.99-5.59,2.79,0,4.21,1.63,4.21,4.85v10.15c0,.45.37.82.82.82h2.97c.45,0,.82-.37.82-.82v-9.41c0-3.55,1.82-5.59,4.99-5.59,2.8,0,4.21,1.63,4.21,4.85v10.15c0,.45.37.82.82.82h2.97c.45,0,.82-.37.82-.82v-10.54c0-5.54-3.01-8.72-8.26-8.72ZM258.84,31.43l-8.14-10.33c-.16-.21-.14-.5.04-.68l7.31-7.19c.33-.32.1-.88-.36-.88h-4.26c-.21,0-.4.08-.55.22l-8.24,7.56c-.33.3-.86.07-.86-.38v-6.58c0-.45-.37-.82-.82-.82h-2.97c-.45,0-.82.37-.82.82v18.27c0,.45.37.82.82.82h2.97c.46,0,.82-.37.82-.83l-.03-4.24c0-.23.09-.45.26-.61l2.56-2.38c.22-.2.56-.18.75.06l6.19,7.69c.16.19.39.31.64.31h4.27c.43,0,.67-.49.4-.83Z"
      style="fill:#0e0e10; stroke-width:0px;" />
    <path
      d="M41.83,13.83c0-1.77-.96-3.4-2.5-4.26L23.3.62c-1.48-.83-3.28-.83-4.76,0L2.5,9.57c-1.54.86-2.5,2.49-2.5,4.26v17.08c0,1.78.97,3.42,2.53,4.28l16.04,8.82c1.46.81,3.24.81,4.7,0l16.04-8.82c1.56-.86,2.53-2.5,2.53-4.28V13.83ZM12.03,30.78c0,.4-.43.65-.78.46l-2.68-1.48c-.56-.31-.9-.89-.9-1.53v-8.07c0-.4.43-.65.78-.46l2.95,1.63c.39.21.63.62.63,1.07v8.38ZM34.16,28.19c0,.63-.34,1.22-.9,1.53l-2.68,1.48c-.35.19-.78-.06-.78-.46v-10.32c0-.4-.43-.65-.78-.46l-4.95,2.73c-.56.31-.9.89-.9,1.53v10.55c0,.32-.17.61-.45.76l-1.01.56c-.52.29-1.16.29-1.69,0l-.94-.52c-.28-.15-.45-.45-.45-.76v-10.66c0-.63-.34-1.22-.9-1.53l-9.81-5.42c-.17-.09-.27-.27-.27-.46v-.42c0-.63.34-1.22.9-1.53l1.4-.77c.52-.29,1.16-.29,1.69,0l8.48,4.69c.52.29,1.16.29,1.69,0l3.81-2.11c.36-.2.36-.72,0-.92l-8.51-4.7c-.36-.2-.36-.72,0-.92l2.9-1.6c.52-.29,1.16-.29,1.69,0l11.55,6.38c.56.31.9.89.9,1.53v11.81Z"
      style="fill:#0e0e10; stroke-width:0px;" />
  </g>
  <text id="device-name" y="50" x="50" style="font-family:sans-serif; font-size:16px; fill:#000000">
    Router 64-port
  </text>
  <g transform="translate(55 60)" class="device-ports">
    <g class="device-port" transform="translate(0 0)">
      <rect
        id="device-port-1"
        style="stroke:#777777;stroke-width:2"
        height="32"
        width="40"
        y="0"
        x="0"
      />
      <rect
        style="stroke:#777777;stroke-width:2;fill:#ffff00"
        height="8"
        width="12"
        y="24"
        x="0"
      />
      <rect
        style="stroke:#777777;stroke-width:2;fill:#88aa00"
        height="8"
        width="12"
        y="24"
        x="28"
      />
      <text y="17" x="20" style="font-family:sans-serif; font-size:14px; text-anchor:middle; fill:#000000">
        1
      </text>
    </g>
    <g class="device-port" transform="translate(0 50)">
      <rect
        id="device-port-2"
        style="stroke:#777777;stroke-width:2"
        height="32"
        width="40"
        y="0"
        x="0"
      />
      <rect
        style="stroke:#777777;stroke-width:2;fill:#ffff00"
        height="8"
        width="12"
        y="24"
        x="0"
      />
      <rect
        style="stroke:#777777;stroke-width:2;fill:#88aa00"
        height="8"
        width="12"
        y="24"
        x="28"
      />
      <text y="17" x="20" style="font-family:sans-serif; font-size:14px; text-anchor:middle; fill:#000000">
        2
      </text>
    </g>
    <g class="device-port" transform="translate(50 0)">
      <rect
        id="device-port-3"
        style="stroke:#777777;stroke-width:2"
        height="32"
        width="40"
        y="0"
        x="0"
      />
      <rect
        style="stroke:#777777;stroke-width:2;fill:#ffff00"
        height="8"
        width="12"
        y="24"
        x="0"
      />
      <rect
        style="stroke:#777777;stroke-width:2;fill:#88aa00"
        height="8"
        width="12"
        y="24"
        x="28"
      />
      <text y="17" x="20" style="font-family:sans-serif; font-size:14px; text-anchor:middle; fill:#000000">
        3
      </text>
    </g>
    <g class="device-port" transform="translate(50 50)">
      <rect
        id="device-port-4"
        style="stroke:#777777;stroke-width:2"
        height="32"
        width="40"
        y="0"
        x="0"
      />
      <rect
        style="stroke:#777777;stroke-width:2;fill:#ffff00"
        height="8"
        width="12"
        y="24"
        x="0"
      />
      <rect
        style="stroke:#777777;stroke-width:2;fill:#88aa00"
        height="8"
        width="12"
        y="24"
        x="28"
      />
      <text y="17" x="20" style="font-family:sans-serif; font-size:14px; text-anchor:middle; fill:#000000">
        4
      </text>
    </g>
    <g class="device-port" transform="translate(100 0)">
      <rect
        id="device-port-5"
        style="stroke:#777777;stroke-width:2"
        height="32"
        width="40"
        y="0"
        x="0"
      />
      <rect
        style="stroke:#777777;stroke-width:2;fill:#ffff00"
        height="8"
        width="12"
        y="24"
        x="0"
      />
      <rect
        style="stroke:#777777;stroke-width:2;fill:#88aa00"
        height="8"
        width="12"
        y="24"
        x="28"
      />
      <text y="17" x="20" style="font-family:sans-serif; font-size:14px; text-anchor:middle; fill:#000000">
        5
      </text>
    </g>
    <g class="device-port" transform="translate(100 50)">
      <rect
        id="device-port-6"
        style="stroke:#777777;stroke-width:2"
        height="32"
        width="40"
        y="0"
        x="0"
      />
      <rect
        style="stroke:#777777;stroke-width:2;fill:#ffff00"
        height="8"
        width="12"
        y="24"
        x="0"
      />
      <rect
        style="stroke:#777777;stroke-width:2;fill:#88aa00"
        height="8"
        width="12"
        y="24"
        x="28"
      />
      <text y="17" x="20" style="font-family:sans-serif; font-size:14px; text-anchor:middle; fill:#000000">
        6
      </text>
    </g>
    <g class="device-port" transform="translate(150 0)">
      <rect
        id="device-port-7"
        style="stroke:#777777;stroke-width:2"
        height="32"
        width="40"
        y="0"
        x="0"
      />
      <rect
        style="stroke:#777777;stroke-width:2;fill:#ffff00"
        height="8"
        width="12"
        y="24"
        x="0"
      />
      <rect
        style="stroke:#777777;stroke-width:2;fill:#88aa00"
        height="8"
        width="12"
        y="24"
        x="28"
      />
      <text y="17" x="20" style="font-family:sans-serif; font-size:14px; text-anchor:middle; fill:#000000">
        7
      </text>
    </g>
    <g class="device-port" transform="translate(150 50)">
      <rect
        id="device-port-8"
        style="stroke:#777777;stroke-width:2"
        height="32"
        width="40"
        y="0"
        x="0"
      />
      <rect
        style="stroke:#777777;stroke-width:2;fill:#ffff00"
        height="8"
        width="12"
        y="24"
        x="0"
      />
      <rect
        style="stroke:#777777;stroke-width:2;fill:#88aa00"
        height="8"
        width="12"
        y="24"
        x="28"
      />
      <text y="17" x="20" style="font-family:sans-serif; font-size:14px; text-anchor:middle; fill:#000000">
        8
      </text>
    </g>
    <g class="device-port" transform="translate(200 0)">
      <rect
        id="device-port-9"
        style="stroke:#777777;stroke-width:2"
        height="32"
        width="40"
        y="0"
        x="0"
      />
      <rect
        style="stroke:#777777;stroke-width:2;fill:#ffff00"
        height="8"
        width="12"
        y="24"
        x="0"
      />
      <rect
        style="stroke:#777777;stroke-width:2;fill:#88aa00"
        height="8"
        width="12"
        y="24"
        x="28"
      />
      <text y="17" x="20" style="font-family:sans-serif; font-size:14px; text-anchor:middle; fill:#000000">
        9
      </text>
    </g>
    <g class="device-port" transform="translate(200 50)">
      <rect
        id="device-port-10"
        style="stroke:#777777;stroke-width:2"
        height="32"
        width="40"
        y="0"
        x="0"
      />
      <rect
        style="stroke:#777777;stroke-width:2;fill:#ffff00"
        height="8"
        width="12"
        y="24"
        x="0"
      />
      <rect
        style="stroke:#777777;stroke-width:2;fill:#88aa00"
        height="8"
        width="12"
        y="24"
        x="28"
      />
      <text y="17" x="20" style="font-family:sans-serif; font-size:14px; text-anchor:middle; fill:#000000">
        10
      </text>
    </g>
    <g class="device-port" transform="translate(250 0)">
      <rect
        id="device-port-11"
        style="stroke:#777777;stroke-width:2"
        height="32"
        width="40"
        y="0"
        x="0"
      />
      <rect
        style="stroke:#777777;stroke-width:2;fill:#ffff00"
        height="8"
        width="12"
        y="24"
        x="0"
      />
      <rect
        style="stroke:#777777;stroke-width:2;fill:#88aa00"
        height="8"
        width="12"
        y="24"
        x="28"
      />
      <text y="17" x="20" style="font-family:sans-serif; font-size:14px; text-anchor:middle; fill:#000000">
        11
      </text>
    </g>
    <g class="device-port" transform="translate(250 50)">
      <rect
        id="device-port-12"
        style="stroke:#777777;stroke-width:2"
        height="32"
        width="40"
        y="0"
        x="0"
      />
      <rect
        style="stroke:#777777;stroke-width:2;fill:#ffff00"
        height="8"
        width="12"
        y="24"
        x="0"
      />
      <rect
        style="stroke:#777777;stroke-width:2;fill:#88aa00"
        height="8"
        width="12"
        y="24"
        x="28"
      />
      <text y="17" x="20" style="font-family:sans-serif; font-size:14px; text-anchor:middle; fill:#000000">
        12
      </text>
    </g>
    <g class="device-port" transform="translate(300 0)">
      <rect
        id="device-port-13"
        style="stroke:#777777;stroke-width:2"
        height="32"
        width="40"
        y="0"
        x="0"
      />
      <rect
        style="stroke:#777777;stroke-width:2;fill:#ffff00"
        height="8"
        width="12"
        y="24"
        x="0"
      />
      <rect
        style="stroke:#777777;stroke-width:2;fill:#88aa00"
        height="8"
        width="12"
        y="24"
        x="28"
      />
      <text y="17" x="20" style="font-family:sans-serif; font-size:14px; text-anchor:middle; fill:#000000">
        13
      </text>
    </g>
    <g class="device-port" transform="translate(300 50)">
      <rect
        id="device-port-14"
        style="stroke:#777777;stroke-width:2"
        height="32"
        width="40"
        y="0"
        x="0"
      />
      <rect
        style="stroke:#777777;stroke-width:2;fill:#ffff00"
        height="8"
        width="12"
        y="24"
        x="0"
      />
      <rect
        style="stroke:#777777;stroke-width:2;fill:#88aa00"
        height="8"
        width="12"
        y="24"
        x="28"
      />
      <text y="17" x="20" style="font-family:sans-serif; font-size:14px; text-anchor:middle; fill:#000000">
        14
      </text>
    </g>
    <g class="device-port" transform="translate(350 0)">
      <rect
        id="device-port-15"
        style="stroke:#777777;stroke-width:2"
        height="32"
        width="40"
        y="0"
        x="0"
      />
      <rect
        style="stroke:#777777;stroke-width:2;fill:#ffff00"
        height="8"
        width="12"
        y="24"
        x="0"
      />
      <rect
        style="stroke:#777777;stroke-width:2;fill:#88aa00"
        height="8"
        width="12"
        y="24"
        x="28"
      />
      <text y="17" x="20" style="font-family:sans-serif; font-size:14px; text-anchor:middle; fill:#000000">
        15
      </text>
    </g>
    <g class="device-port" transform="translate(350 50)">
      <rect
        id="device-port-16"
        style="stroke:#777777;stroke-width:2"
        height="32"
        width="40"
        y="0"
        x="0"
      />
      <rect
        style="stroke:#777777;stroke-width:2;fill:#ffff00"
        height="8"
        width="12"
        y="24"
        x="0"
      />
      <rect
        style="stroke:#777777;stroke-width:2;fill:#88aa00"
        height="8"
        width="12"
        y="24"
        x="28"
      />
      <text y="17" x="20" style="font-family:sans-serif; font-size:14px; text-anchor:middle; fill:#000000">
        16
      </text>
    </g>
    <g class="device-port" transform="translate(400 0)">
      <rect
        id="device-port-17"
        style="stroke:#777777;stroke-width:2"
        height="32"
        width="40"
        y="0"
        x="0"
      />
      <rect
        style="stroke:#777777;stroke-width:2;fill:#ffff00"
        height="8"
        width="12"
        y="24"
        x="0"
      />
      <rect
        style="stroke:#777777;stroke-width:2;fill:#88aa00"
        height="8"
        width="12"
        y="24"
        x="28"
      />
      <text y="17" x="20" style="font-family:sans-serif; font-size:14px; text-anchor:middle; fill:#000000">
        17
      </text>
    </g>
    <g class="device-port" transform="translate(400 50)">
      <rect
        id="device-port-18"
        style="stroke:#777777;stroke-width:2"
        height="32"
        width="40"
        y="0"
        x="0"
      />
      <rect
        style="stroke:#777777;stroke-width:2;fill:#ffff00"
        height="8"
        width="12"
        y="24"
        x="0"
      />
      <rect
        style="stroke:#777777;stroke-width:2;fill:#88aa00"
        height="8"
        width="12"
        y="24"
        x="28"
      />
      <text y="17" x="20" style="font-family:sans-serif; font-size:14px; text-anchor:middle; fill:#000000">
        18
      </text>
    </g>
    <g class="device-port" transform="translate(450 0)">
      <rect
        id="device-port-19"
        style="stroke:#777777;stroke-width:2"
        height="32"
        width="40"
        y="0"
        x="0"
      />
      <rect
        style="stroke:#777777;stroke-width:2;fill:#ffff00"
        height="8"
        width="12"
        y="24"
        x="0"
      />
      <rect
        style="stroke:#777777;stroke-width:2;fill:#88aa00"
        height="8"
        width="12"
        y="24"
        x="28"
      />
      <text y="17" x="20" style="font-family:sans-serif; font-size:14px; text-anchor:middle; fill:#000000">
        19
      </text>
    </g>
    <g class="device-port" transform="translate(450 50)">
      <rect
        id="device-port-20"
        style="stroke:#777777;stroke-width:2"
        height="32"
        width="40"
        y="0"
        x="0"
      />
      <rect
        style="stroke:#777777;stroke-width:2;fill:#ffff00"
        height="8"
        width="12"
        y="24"
        x="0"
      />
      <rect
        style="stroke:#777777;stroke-width:2;fill:#88aa00"
        height="8"
        width="12"
        y="24"
        x="28"
      />
      <text y="17" x="20" style="font-family:sans-serif; font-size:14px; text-anchor:middle; fill:#000000">
        20
      </text>
    </g>
    <g class="device-port" transform="translate(500 0)">
      <rect
        id="device-port-21"
        style="stroke:#777777;stroke-width:2"
        height="32"
        width="40"
        y="0"
        x="0"
      />
      <rect
        style="stroke:#777777;stroke-width:2;fill:#ffff00"
        height="8"
        width="12"
        y="24"
        x="0"
      />
      <rect
        style="stroke:#777777;stroke-width:2;fill:#88aa00"
        height="8"
        width="12"
        y="24"
        x="28"
      />
      <text y="17" x="20" style="font-family:sans-serif; font-size:14px; text-anchor:middle; fill:#000000">
        21
      </text>
    </g>
    <g class="device-port" transform="translate(500 50)">
      <rect
        id="device-port-22"
        style="stroke:#777777;stroke-width:2"
        height="32"
        width="40"
        y="0"
        x="0"
      />
      <rect
        style="stroke:#777777;stroke-width:2;fill:#ffff00"
        height="8"
        width="12"
        y="24"
        x="0"
      />
      <rect
        style="stroke:#777777;stroke-width:2;fill:#88aa00"
        height="8"
        width="12"
        y="24"
        x="28"
      />
      <text y="17" x="20" style="font-family:sans-serif; font-size:14px; text-anchor:middle; fill:#000000">
        22
      </text>
    </g>
    <g class="device-port" transform="translate(550 0)">
      <rect
        id="device-port-23"
        style="stroke:#777777;stroke-width:2"
        height="32"
        width="40"
        y="0"
        x="0"
      />
      <rect
        style="stroke:#777777;stroke-width:2;fill:#ffff00"
        height="8"
        width="12"
        y="24"
        x="0"
      />
      <rect
        style="stroke:#777777;stroke-width:2;fill:#88aa00"
        height="8"
        width="12"
        y="24"
        x="28"
      />
      <text y="17" x="20" style="font-family:sans-serif; font-size:14px; text-anchor:middle; fill:#000000">
        23
      </text>
    </g>
    <g class="device-port" transform="translate(550 50)">
      <rect
        id="device-port-24"
        style="stroke:#777777;stroke-width:2"
        height="32"
        width="40"
        y="0"
        x="0"
      />
      <rect
        style="stroke:#777777;stroke-width:2;fill:#ffff00"
        height="8"
        width="12"
        y="24"
        x="0"
      />
      <rect
        style="stroke:#777777;stroke-width:2;fill:#88aa00"
        height="8"
        width="12"
        y="24"
        x="28"
      />
      <text y="17" x="20" style="font-family:sans-serif; font-size:14px; text-anchor:middle; fill:#000000">
        24
      </text>
    </g>
    <g class="device-port" transform="translate(600 0)">
      <rect
        id="device-port-25"
        style="stroke:#777777;stroke-width:2"
        height="32"
        width="40"
        y="0"
        x="0"
      />
      <rect
        style="stroke:#777777;stroke-width:2;fill:#ffff00"
        height="8"
        width="12"
        y="24"
        x="0"
      />
      <rect
        style="stroke:#777777;stroke-width:2;fill:#88aa00"
        height="8"
        width="12"
        y="24"
        x="28"
      />
      <text y="17" x="20" style="font-family:sans-serif; font-size:14px; text-anchor:middle; fill:#000000">
        25
      </text>
    </g>
    <g class="device-port" transform="translate(600 50)">
      <rect
        id="device-port-26"
        style="stroke:#777777;stroke-width:2"
        height="32"
        width="40"
        y="0"
        x="0"
      />
      <rect
        style="stroke:#777777;stroke-width:2;fill:#ffff00"
        height="8"
        width="12"
        y="24"
        x="0"
      />
      <rect
        style="stroke:#777777;stroke-width:2;fill:#88aa00"
        height="8"
        width="12"
        y="24"
        x="28"
      />
      <text y="17" x="20" style="font-family:sans-serif; font-size:14px; text-anchor:middle; fill:#000000">
        26
      </text>
    </g>
    <g class="device-port" transform="translate(650 0)">
      <rect
        id="device-port-27"
        style="stroke:#777777;stroke-width:2"
        height="32"
        width="40"
        y="0"
        x="0"
      />
      <rect
        style="stroke:#777777;stroke-width:2;fill:#ffff00"
        height="8"
        width="12"
        y="24"
        x="0"
      />
      <rect
        style="stroke:#777777;stroke-width:2;fill:#88aa00"
        height="8"
        width="12"
        y="24"
        x="28"
      />
      <text y="17" x="20" style="font-family:sans-serif; font-size:14px; text-anchor:middle; fill:#000000">
        27
      </text>
    </g>
    <g class="device-port" transform="translate(650 50)">
      <rect
        id="device-port-28"
        style="stroke:#777777;stroke-width:2"
        height="32"
        width="40"
        y="0"
        x="0"
      />
      <rect
        style="stroke:#777777;stroke-width:2;fill:#ffff00"
        height="8"
        width="12"
        y="24"
        x="0"
      />
      <rect
        style="stroke:#777777;stroke-width:2;fill:#88aa00"
        height="8"
        width="12"
        y="24"
        x="28"
      />
      <text y="17" x="20" style="font-family:sans-serif; font-size:14px; text-anchor:middle; fill:#000000">
        28
      </text>
    </g>
    <g class="device-port" transform="translate(700 0)">
      <rect
        id="device-port-29"
        style="stroke:#777777;stroke-width:2"
        height="32"
        width="40"
        y="0"
        x="0"
      />
      <rect
        style="stroke:#777777;stroke-width:2;fill:#ffff00"
        height="8"
        width="12"
        y="24"
        x="0"
      />
      <rect
        style="stroke:#777777;stroke-width:2;fill:#88aa00"
        height="8"
        width="12"
        y="24"
        x="28"
      />
      <text y="17" x="20" style="font-family:sans-serif; font-size:14px; text-anchor:middle; fill:#000000">
        29
      </text>
    </g>
    <g class="device-port" transform="translate(700 50)">
      <rect
        id="device-port-30"
        style="stroke:#777777;stroke-width:2"
        height="32"
        width="40"
        y="0"
        x="0"
      />
      <rect
        style="stroke:#777777;stroke-width:2;fill:#ffff00"
        height="8"
        width="12"
        y="24"
        x="0"
      />
      <rect
        style="stroke:#777777;stroke-width:2;fill:#88aa00"
        height="8"
        width="12"
        y="24"
        x="28"
      />
      <text y="17" x="20" style="font-family:sans-serif; font-size:14px; text-anchor:middle; fill:#000000">
        30
      </text>
    </g>
    <g class="device-port" transform="translate(750 0)">
      <rect
        id="device-port-31"
        style="stroke:#777777;stroke-width:2"
        height="32"
        width="40"
        y="0"
        x="0"
      />
      <rect
        style="stroke:#777777;stroke-width:2;fill:#ffff00"
        height="8"
        width="12"
        y="24"
        x="0"
      />
      <rect
        style="stroke:#777777;stroke-width:2;fill:#88aa00"
        height="8"
        width="12"
        y="24"
        x="28"
      />
      <text y="17" x="20" style="font-family:sans-serif; font-size:14px; text-anchor:middle; fill:#000000">
        31
      </text>
    </g>
    <g class="device-port" transform="translate(750 50)">
      <rect
        id="device-port-32"
        style="stroke:#777777;stroke-width:2"
        height="32"
        width="40"
        y="0"
        x="0"
      />
      <rect
        style="stroke:#777777;stroke-width:2;fill:#ffff00"
        height="8"
        width="12"
        y="24"
        x="0"
      />
      <rect
        style="stroke:#777777;stroke-width:2;fill:#88aa00"
        height="8"
        width="12"
        y="24"
        x="28"
      />
      <text y="17" x="20" style="font-family:sans-serif; font-size:14px; text-anchor:middle; fill:#000000">
        32
      </text>
    </g>
    <g class="device-port" transform="translate(800 0)">
      <rect
        id="device-port-33"
        style="stroke:#777777;stroke-width:2"
        height="32"
        width="40"
        y="0"
        x="0"
      />
      <rect
        style="stroke:#777777;stroke-width:2;fill:#ffff00"
        height="8"
        width="12"
        y="24"
        x="0"
      />
      <rect
        style="stroke:#777777;stroke-width:2;fill:#88aa00"
        height="8"
        width="12"
        y="24"
        x="28"
      />
      <text y="17" x="20" style="font-family:sans-serif; font-size:14px; text-anchor:middle; fill:#000000">
        33
      </text>
    </g>
    <g class="device-port" transform="translate(800 50)">
      <rect
        id="device-port-34"
        style="stroke:#777777;stroke-width:2"
        height="32"
        width="40"
        y="0"
        x="0"
      />
      <rect
        style="stroke:#777777;stroke-width:2;fill:#ffff00"
        height="8"
        width="12"
        y="24"
        x="0"
      />
      <rect
        style="stroke:#777777;stroke-width:2;fill:#88aa00"
        height="8"
        width="12"
        y="24"
        x="28"
      />
      <text y="17" x="20" style="font-family:sans-serif; font-size:14px; text-anchor:middle; fill:#000000">
        34
      </text>
    </g>
    <g class="device-port" transform="translate(850 0)">
      <rect
        id="device-port-35"
        style="stroke:#777777;stroke-width:2"
        height="32"
        width="40"
        y="0"
        x="0"
      />
      <rect
        style="stroke:#777777;stroke-width:2;fill:#ffff00"
        height="8"
        width="12"
        y="24"
        x="0"
      />
      <rect
        style="stroke:#777777;stroke-width:2;fill:#88aa00"
        height="8"
        width="12"
        y="24"
        x="28"
      />
      <text y="17" x="20" style="font-family:sans-serif; font-size:14px; text-anchor:middle; fill:#000000">
        35
      </text>
    </g>
    <g class="device-port" transform="translate(850 50)">
      <rect
        id="device-port-36"
        style="stroke:#777777;stroke-width:2"
        height="32"
        width="40"
        y="0"
        x="0"
      />
      <rect
        style="stroke:#777777;stroke-width:2;fill:#ffff00"
        height="8"
        width="12"
        y="24"
        x="0"
      />
      <rect
        style="stroke:#777777;stroke-width:2;fill:#88aa00"
        height="8"
        width="12"
        y="24"
        x="28"
      />
      <text y="17" x="20" style="font-family:sans-serif; font-size:14px; text-anchor:middle; fill:#000000">
        36
      </text>
    </g>
    <g class="device-port" transform="translate(900 0)">
      <rect
        id="device-port-37"
        style="stroke:#777777;stroke-width:2"
        height="32"
        width="40"
        y="0"
        x="0"
      />
      <rect
        style="stroke:#777777;stroke-width:2;fill:#ffff00"
        height="8"
        width="12"
        y="24"
        x="0"
      />
      <rect
        style="stroke:#777777;stroke-width:2;fill:#88aa00"
        height="8"
        width="12"
        y="24"
        x="28"
      />
      <text y="17" x="20" style="font-family:sans-serif; font-size:14px; text-anchor:middle; fill:#000000">
        37
      </text>
    </g>
    <g class="device-port" transform="translate(900 50)">
      <rect
        id="device-port-38"
        style="stroke:#777777;stroke-width:2"
        height="32"
        width="40"
        y="0"
        x="0"
      />
      <rect
        style="stroke:#777777;stroke-width:2;fill:#ffff00"
        height="8"
        width="12"
        y="24"
        x="0"
      />
      <rect
        style="stroke:#777777;stroke-width:2;fill:#88aa00"
        height="8"
        width="12"
        y="24"
        x="28"
      />
      <text y="17" x="20" style="font-family:sans-serif; font-size:14px; text-anchor:middle; fill:#000000">
        38
      </text>
    </g>
    <g class="device-port" transform="translate(950 0)">
      <rect
        id="device-port-39"
        style="stroke:#777777;stroke-width:2"
        height="32"
        width="40"
        y="0"
        x="0"
      />
      <rect
        style="stroke:#777777;stroke-width:2;fill:#ffff00"
        height="8"
        width="12"
        y="24"
        x="0"
      />
      <rect
        style="stroke:#777777;stroke-width:2;fill:#88aa00"
        height="8"
        width="12"
        y="24"
        x="28"
      />
      <text y="17" x="20" style="font-family:sans-serif; font-size:14px; text-anchor:middle; fill:#000000">
        39
      </text>
    </g>
    <g class="device-port" transform="translate(950 50)">
      <rect
        id="device-port-40"
        style="stroke:#777777;stroke-width:2"
        height="32"
        width="40"
        y="0"
        x="0"
      />
      <rect
        style="stroke:#777777;stroke-width:2;fill:#ffff00"
        height="8"
        width="12"
        y="24"
        x="0"
      />
      <rect
        style="stroke:#777777;stroke-width:2;fill:#88aa00"
        height="8"
        width="12"
        y="24"
        x="28"
      />
      <text y="17" x="20" style="font-family:sans-serif; font-size:14px; text-anchor:middle; fill:#000000">
        40
      </text>
    </g>
    <g class="device-port" transform="translate(1000 0)">
      <rect
        id="device-port-41"
        style="stroke:#777777;stroke-width:2"
        height="32"
        width="40"
        y="0"
        x="0"
      />
      <rect
        style="stroke:#777777;stroke-width:2;fill:#ffff00"
        height="8"
        width="12"
        y="24"
        x="0"
      />
      <rect
        style="stroke:#777777;stroke-width:2;fill:#88aa00"
        height="8"
        width="12"
        y="24"
        x="28"
      />
      <text y="17" x="20" style="font-family:sans-serif; font-size:14px; text-anchor:middle; fill:#000000">
        41
      </text>
    </g>
    <g class="device-port" transform="translate(1000 50)">
      <rect
        id="device-port-42"
        style="stroke:#777777;stroke-width:2"
        height="32"
        width="40"
        y="0"
        x="0"
      />
      <rect
        style="stroke:#777777;stroke-width:2;fill:#ffff00"
        height="8"
        width="12"
        y="24"
        x="0"
      />
      <rect
        style="stroke:#777777;stroke-width:2;fill:#88aa00"
        height="8"
        width="12"
        y="24"
        x="28"
      />
      <text y="17" x="20" style="font-family:sans-serif; font-size:14px; text-anchor:middle; fill:#000000">
        42
      </text>
    </g>
    <g class="device-port" transform="translate(1050 0)">
      <rect
        id="device-port-43"
        style="stroke:#777777;stroke-width:2"
        height="32"
        width="40"
        y="0"
        x="0"
      />
      <rect
        style="stroke:#777777;stroke-width:2;fill:#ffff00"
        height="8"
        width="12"
        y="24"
        x="0"
      />
      <rect
        style="stroke:#777777;stroke-width:2;fill:#88aa00"
        height="8"
        width="12"
        y="24"
        x="28"
      />
      <text y="17" x="20" style="font-family:sans-serif; font-size:14px; text-anchor:middle; fill:#000000">
        43
      </text>
    </g>
    <g class="device-port" transform="translate(1050 50)">
      <rect
        id="device-port-44"
        style="stroke:#777777;stroke-width:2"
        height="32"
        width="40"
        y="0"
        x="0"
      />
      <rect
        style="stroke:#777777;stroke-width:2;fill:#ffff00"
        height="8"
        width="12"
        y="24"
        x="0"
      />
      <rect
        style="stroke:#777777;stroke-width:2;fill:#88aa00"
        height="8"
        width="12"
        y="24"
        x="28"
      />
      <text y="17" x="20" style="font-family:sans-serif; font-size:14px; text-anchor:middle; fill:#000000">
        44
      </text>
    </g>
    <g class="device-port" transform="translate(1100 0)">
      <rect
        id="device-port-45"
        style="stroke:#777777;stroke-width:2"
        height="32"
        width="40"
        y="0"
        x="0"
      />
      <rect
        style="stroke:#777777;stroke-width:2;fill:#ffff00"
        height="8"
        width="12"
        y="24"
        x="0"
      />
      <rect
        style="stroke:#777777;stroke-width:2;fill:#88aa00"
        height="8"
        width="12"
        y="24"
        x="28"
      />
      <text y="17" x="20" style="font-family:sans-serif; font-size:14px; text-anchor:middle; fill:#000000">
        45
      </text>
    </g>
    <g class="device-port" transform="translate(1100 50)">
      <rect
        id="device-port-46"
        style="stroke:#777777;stroke-width:2"
        height="32"
        width="40"
        y="0"
        x="0"
      />
      <rect
        style="stroke:#777777;stroke-width:2;fill:#ffff00"
        height="8"
        width="12"
        y="24"
        x="0"
      />
      <rect
        style="stroke:#777777;stroke-width:2;fill:#88aa00"
        height="8"
        width="12"
        y="24"
        x="28"
      />
      <text y="17" x="20" style="font-family:sans-serif; font-size:14px; text-anchor:middle; fill:#000000">
        46
      </text>
    </g>
    <g class="device-port" transform="translate(1150 0)">
      <rect
        id="device-port-47"
        style="stroke:#777777;stroke-width:2"
        height="32"
        width="40"
        y="0"
        x="0"
      />
      <rect
        style="stroke:#777777;stroke-width:2;fill:#ffff00"
        height="8"
        width="12"
        y="24"
        x="0"
      />
      <rect
        style="stroke:#777777;stroke-width:2;fill:#88aa00"
        height="8"
        width="12"
        y="24"
        x="28"
      />
      <text y="17" x="20" style="font-family:sans-serif; font-size:14px; text-anchor:middle; fill:#000000">
        47
      </text>
    </g>
    <g class="device-port" transform="translate(1150 50)">
      <rect
        id="device-port-48"
        style="stroke:#777777;stroke-width:2"
        height="32"
        width="40"
        y="0"
        x="0"
      />
      <rect
        style="stroke:#777777;stroke-width:2;fill:#ffff00"
        height="8"
        width="12"
        y="24"
        x="0"
      />
      <rect
        style="stroke:#777777;stroke-width:2;fill:#88aa00"
        height="8"
        width="12"
        y="24"
        x="28"
      />
      <text y="17" x="20" style="font-family:sans-serif; font-size:14px; text-anchor:middle; fill:#000000">
        48
      </text>
    </g>
    <g class="device-port" transform="translate(1200 0)">
      <rect
        id="device-port-49"
        style="stroke:#777777;stroke-width:2"
        height="32"
        width="40"
        y="0"
        x="0"
      />
      <rect
        style="stroke:#777777;stroke-width:2;fill:#ffff00"
        height="8"
        width="12"
        y="24"
        x="0"
      />
      <rect
        style="stroke:#777777;stroke-width:2;fill:#88aa00"
        height="8"
        width="12"
        y="24"
        x="28"
      />
      <text y="17" x="20" style="font-family:sans-serif; font-size:14px; text-anchor:middle; fill:#000000">
        49
      </text>
    </g>
    <g class="device-port" transform="translate(1200 50)">
      <rect
        id="device-port-50"
        style="stroke:#777777;stroke-width:2"
        height="32"
        width="40"
        y="0"
        x="0"
      />
      <rect
        style="stroke:#777777;stroke-width:2;fill:#ffff00"
        height="8"
        width="12"
        y="24"
        x="0"
      />
      <rect
        style="stroke:#777777;stroke-width:2;fill:#88aa00"
        height="8"
        width="12"
        y="24"
        x="28"
      />
      <text y="17" x="20" style="font-family:sans-serif; font-size:14px; text-anchor:middle; fill:#000000">
        50
      </text>
    </g>
    <g class="device-port" transform="translate(1250 0)">
      <rect
        id="device-port-51"
        style="stroke:#777777;stroke-width:2"
        height="32"
        width="40"
        y="0"
        x="0"
      />
      <rect
        style="stroke:#777777;stroke-width:2;fill:#ffff00"
        height="8"
        width="12"
        y="24"
        x="0"
      />
      <rect
        style="stroke:#777777;stroke-width:2;fill:#88aa00"
        height="8"
        width="12"
        y="24"
        x="28"
      />
      <text y="17" x="20" style="font-family:sans-serif; font-size:14px; text-anchor:middle; fill:#000000">
        51
      </text>
    </g>
    <g class="device-port" transform="translate(1250 50)">
      <rect
        id="device-port-52"
        style="stroke:#777777;stroke-width:2"
        height="32"
        width="40"
        y="0"
        x="0"
      />
      <rect
        style="stroke:#777777;stroke-width:2;fill:#ffff00"
        height="8"
        width="12"
        y="24"
        x="0"
      />
      <rect
        style="stroke:#777777;stroke-width:2;fill:#88aa00"
        height="8"
        width="12"
        y="24"
        x="28"
      />
      <text y="17" x="20" style="font-family:sans-serif; font-size:14px; text-anchor:middle; fill:#000000">
        52
      </text>
    </g>
    <g class="device-port" transform="translate(1300 0)">
      <rect
        id="device-port-53"
        style="stroke:#777777;stroke-width:2"
        height="32"
        width="40"
        y="0"
        x="0"
      />
      <rect
        style="stroke:#777777;stroke-width:2;fill:#ffff00"
        height="8"
        width="12"
        y="24"
        x="0"
      />
      <rect
        style="stroke:#777777;stroke-width:2;fill:#88aa00"
        height="8"
        width="12"
        y="24"
        x="28"
      />
      <text y="17" x="20" style="font-family:sans-serif; font-size:14px; text-anchor:middle; fill:#000000">
        53
      </text>
    </g>
    <g class="device-port" transform="translate(1300 50)">
      <rect
        id="device-port-54"
        style="stroke:#777777;stroke-width:2"
        height="32"
        width="40"
        y="0"
        x="0"
      />
      <rect
        style="stroke:#777777;stroke-width:2;fill:#ffff00"
        height="8"
        width="12"
        y="24"
        x="0"
      />
      <rect
        style="stroke:#777777;stroke-width:2;fill:#88aa00"
        height="8"
        width="12"
        y="24"
        x="28"
      />
      <text y="17" x="20" style="font-family:sans-serif; font-size:14px; text-anchor:middle; fill:#000000">
        54
      </text>
    </g>
    <g class="device-port" transform="translate(1350 0)">
      <rect
        id="device-port-55"
        style="stroke:#777777;stroke-width:2"
        height="32"
        width="40"
        y="0"
        x="0"
      />
      <rect
        style="stroke:#777777;stroke-width:2;fill:#ffff00"
        height="8"
        width="12"
        y="24"
        x="0"
      />
      <rect
        style="stroke:#777777;stroke-width:2;fill:#88aa00"
        height="8"
        width="12"
        y="24"
        x="28"
      />
      <text y="17" x="20" style="font-family:sans-serif; font-size:14px; text-anchor:middle; fill:#000000">
        55
      </text>
    </g>
    <g class="device-port" transform="translate(1350 50)">
      <rect
        id="device-port-56"
        style="stroke:#777777;stroke-width:2"
        height="32"
        width="40"
        y="0"
        x="0"
      />
      <rect
        style="stroke:#777777;stroke-width:2;fill:#ffff00"
        height="8"
        width="12"
        y="24"
        x="0"
      />
      <rect
        style="stroke:#777777;stroke-width:2;fill:#88aa00"
        height="8"
        width="12"
        y="24"
        x="28"
      />
      <text y="17" x="20" style="font-family:sans-serif; font-size:14px; text-anchor:middle; fill:#000000">
        56
      </text>
    </g>
    <g class="device-port" transform="translate(1400 0)">
      <rect
        id="device-port-57"
        style="stroke:#777777;stroke-width:2"
        height="32"
        width="40"
        y="0"
        x="0"
      />
      <rect
        style="stroke:#777777;stroke-width:2;fill:#ffff00"
        height="8"
        width="12"
        y="24"
        x="0"
      />
      <rect
        style="stroke:#777777;stroke-width:2;fill:#88aa00"
        height="8"
        width="12"
        y="24"
        x="28"
      />
      <text y="17" x="20" style="font-family:sans-serif; font-size:14px; text-anchor:middle; fill:#000000">
        57
      </text>
    </g>
    <g class="device-port" transform="translate(1400 50)">
      <rect
        id="device-port-58"
        style="stroke:#777777;stroke-width:2"
        height="32"
        width="40"
        y="0"
        x="0"
      />
      <rect
        style="stroke:#777777;stroke-width:2;fill:#ffff00"
        height="8"
        width="12"
        y="24"
        x="0"
      />
      <rect
        style="stroke:#777777;stroke-width:2;fill:#88aa00"
        height="8"
        width="12"
        y="24"
        x="28"
      />
      <text y="17" x="20" style="font-family:sans-serif; font-size:14px; text-anchor:middle; fill:#000000">
        58
      </text>
    </g>
    <g class="device-port" transform="translate(1450 0)">
      <rect
        id="device-port-59"
        style="stroke:#777777;stroke-width:2"
        height="32"
        width="40"
        y="0"
        x="0"
      />
      <rect
        style="stroke:#777777;stroke-width:2;fill:#ffff00"
        height="8"
        width="12"
        y="24"
        x="0"
      />
      <rect
        style="stroke:#777777;stroke-width:2;fill:#88aa00"
        height="8"
        width="12"
        y="24"
        x="28"
      />
      <text y="17" x="20" style="font-family:sans-serif; font-size:14px; text-anchor:middle; fill:#000000">
        59
      </text>
    </g>
    <g class="device-port" transform="translate(1450 50)">
      <rect
        id="device-port-60"
        style="stroke:#777777;stroke-width:2"
        height="32"
        width="40"
        y="0"
        x="0"
      />
      <rect
        style="stroke:#777777;stroke-width:2;fill:#ffff00"
        height="8"
        width="12"
        y="24"
        x="0"
      />
      <rect
        style="stroke:#777777;stroke-width:2;fill:#88aa00"
        height="8"
        width="12"
        y="24"
        x="28"
      />
      <text y="17" x="20" style="font-family:sans-serif; font-size:14px; text-anchor:middle; fill:#000000">
        60
      </text>
    </g>
    <g class="device-port" transform="translate(1500 0)">
      <rect
        id="device-port-61"
        style="stroke:#777777;stroke-width:2"
        height="32"
        width="40"
        y="0"
        x="0"
      />
      <rect
        style="stroke:#777777;stroke-width:2;fill:#ffff00"
        height="8"
        width="12"
        y="24"
        x="0"
      />
      <rect
        style="stroke:#777777;stroke-width:2;fill:#88aa00"
        height="8"
        width="12"
        y="24"
        x="28"
      />
      <text y="17" x="20" style="font-family:sans-serif; font-size:14px; text-anchor:middle; fill:#000000">
        61
      </text>
    </g>
    <g class="device-port" transform="translate(1500 50)">
      <rect
        id="device-port-62"
        style="stroke:#777777;stroke-width:2"
        height="32"
        width="40"
        y="0"
        x="0"
      />
      <rect
        style="stroke:#777777;stroke-width:2;fill:#ffff00"
        height="8"
        width="12"
        y="24"
        x="0"
      />
      <rect
        style="stroke:#777777;stroke-width:2;fill:#88aa00"
        height="8"
        width="12"
        y="24"
        x="28"
      />
      <text y="17" x="20" style="font-family:sans-serif; font-size:14px; text-anchor:middle; fill:#000000">
        62
      </text>
    </g>
    <g class="device-port" transform="translate(1550 0)">
      <rect
        id="device-port-63"
        style="stroke:#777777;stroke-width:2"
        height="32"
        width="40"
        y="0"
        x="0"
      />
      <rect
        style="stroke:#777777;stroke-width:2;fill:#ffff00"
        height="8"
        width="12"
        y="24"
        x="0"
      />
      <rect
        style="stroke:#777777;stroke-width:2;fill:#88aa00"
        height="8"
        width="12"
        y="24"
        x="28"
      />
      <text y="17" x="20" style="font-family:sans-serif; font-size:14px; text-anchor:middle; fill:#000000">
        63
      </text>
    </g>
    <g class="device-port" transform="translate(1550 50)">
      <rect
        id="device-port-64"
        style="stroke:#777777;stroke-width:2"
        height="32"
        width="40"
        y="0"
        x="0"
      />
      <rect
        style="stroke:#777777;stroke-width:2;fill:#ffff00"
        height="8"
        width="12"
        y="24"
        x="0"
      />
      <rect
        style="stroke:#777777;stroke-width:2;fill:#88aa00"
        height="8"
        width="12"
        y="24"
        x="28"
      />
      <text y="17" x="20" style="font-family:sans-serif; font-size:14px; text-anchor:middle; fill:#000000">
        64
      </text>
    </g>
  </g>
  <g transform="translate(1685 15)" class="device-power">
    <circle
      id="device-power"
      class="device-power"
      style="stroke:#777777; stroke-width:2"
      r="8"
      cy="0"
      cx="0"
    />
  </g>
</svg>
